<?xml version="1.0" encoding="UTF-8" standalone="no"?>
<!DOCTYPE svg PUBLIC "-//W3C//DTD SVG 1.1//EN" "http://www.w3.org/Graphics/SVG/1.1/DTD/svg11.dtd">
<svg xmlns="http://www.w3.org/2000/svg" xmlns:xlink="http://www.w3.org/1999/xlink" version="1.1" width="800" height="800" viewBox="0 0 800 800" xml:space="preserve">
	<desc>
		Created with Fabric.js 3.6.6
	</desc>
	<defs>
	</defs>
	<g transform="matrix(1 0 0 1 263.94 400.25)">
		<line style="stroke: rgb(0,0,0); stroke-width: 2; stroke-dasharray: none; stroke-linecap: butt; stroke-dashoffset: 0; stroke-linejoin: miter; stroke-miterlimit: 4; fill: rgb(0,0,0); fill-rule: nonzero; opacity: 1;" x1="0" y1="0" x2="0" y2="0" />
	</g>
	<g transform="matrix(1 0 0 1 263.94 400.25)" id="ZquCj4fh3NL8kvhBd56Cp">
		<path style="stroke: rgb(0,0,0); stroke-width: 2; stroke-dasharray: none; stroke-linecap: butt; stroke-dashoffset: 0; stroke-linejoin: miter; stroke-miterlimit: 4; fill: rgb(255,255,255); fill-opacity: 0; fill-rule: nonzero; opacity: 1;" vector-effect="non-scaling-stroke" transform=" translate(0, 0)" d="M -217.86868 399.31943 L -217.86868 124.18488000000002 L 124.00429999999997 124.18488000000002 L 124.00429999999997 -77.32211999999998 L 217.86866999999995 -171.18649 L 217.86866999999995 -399.31943" stroke-linecap="round" />
	</g>
	<circle r="5" fill="" transform="matrix(1 0 0 1 263.94 400.25)">
		<animateMotion dur="60s" repeatCount="indefinite" path="M -217.86868 399.31943 L -217.86868 124.18488000000002 L 124.00429999999997 124.18488000000002 L 124.00429999999997 -77.32211999999998 L 217.86866999999995 -171.18649 L 217.86866999999995 -399.31943" />
	</circle>
	<circle r="5" fill="" transform="matrix(1 0 0 1 263.94 400.25)">
		<animateMotion dur="60s" begin="20s" repeatCount="indefinite" path="M -217.86868 399.31943 L -217.86868 124.18488000000002 L 124.00429999999997 124.18488000000002 L 124.00429999999997 -77.32211999999998 L 217.86866999999995 -171.18649 L 217.86866999999995 -399.31943" />
	</circle>
	<circle r="5" fill="" transform="matrix(1 0 0 1 263.94 400.25)">
		<animateMotion dur="60s" begin="40s" repeatCount="indefinite" path="M -217.86868 399.31943 L -217.86868 124.18488000000002 L 124.00429999999997 124.18488000000002 L 124.00429999999997 -77.32211999999998 L 217.86866999999995 -171.18649 L 217.86866999999995 -399.31943" />
	</circle>
	<circle r="5" fill="" transform="matrix(1 0 0 1 263.94 400.25)">
		<animateMotion dur="60s" begin="20s" repeatCount="indefinite" path="M -217.86868 399.31943 L -217.86868 124.18488000000002 L 124.00429999999997 124.18488000000002 L 124.00429999999997 -77.32211999999998 L 217.86866999999995 -171.18649 L 217.86866999999995 -399.31943" />
	</circle>
	<g transform="matrix(0.18 0 0 0.18 46.87 786.44)" id="VjFYwOsb_iQrflIEnkdX3">
		<path style="stroke: rgb(178,193,88); stroke-width: 0; stroke-dasharray: none; stroke-linecap: butt; stroke-dashoffset: 0; stroke-linejoin: miter; stroke-miterlimit: 4; fill: rgb(165,6,174); fill-rule: nonzero; opacity: 1;" vector-effect="non-scaling-stroke" transform=" translate(0, 0)" d="M 0 -43.05705 C 23.76749 -43.05705 43.05705 -23.767489999999995 43.05705 0 C 43.05705 23.76749 23.767489999999995 43.05705 0 43.05705 C -23.76749 43.05705 -43.05705 23.767489999999995 -43.05705 0 C -43.05705 -23.76749 -23.767489999999995 -43.05705 0 -43.05705 z" stroke-linecap="round" />
	</g>
	<g transform="matrix(0.18 0 0 0.18 46.87 626.44)" id="cJjMpgVa3zkPAJnRFBlAY">
		<path style="stroke: rgb(178,193,88); stroke-width: 0; stroke-dasharray: none; stroke-linecap: butt; stroke-dashoffset: 0; stroke-linejoin: miter; stroke-miterlimit: 4; fill: rgb(165,6,174); fill-rule: nonzero; opacity: 1;" vector-effect="non-scaling-stroke" transform=" translate(0, 0)" d="M 0 -43.05705 C 23.76749 -43.05705 43.05705 -23.767489999999995 43.05705 0 C 43.05705 23.76749 23.767489999999995 43.05705 0 43.05705 C -23.76749 43.05705 -43.05705 23.767489999999995 -43.05705 0 C -43.05705 -23.76749 -23.767489999999995 -43.05705 0 -43.05705 z" stroke-linecap="round" />
	</g>
	<g transform="matrix(0.18 0 0 0.18 66.87 525.44)" id="npZrz1dMT_rwKA85uYWLI">
		<path style="stroke: rgb(178,193,88); stroke-width: 0; stroke-dasharray: none; stroke-linecap: butt; stroke-dashoffset: 0; stroke-linejoin: miter; stroke-miterlimit: 4; fill: rgb(165,6,174); fill-rule: nonzero; opacity: 1;" vector-effect="non-scaling-stroke" transform=" translate(0, 0)" d="M 0 -43.05705 C 23.76749 -43.05705 43.05705 -23.767489999999995 43.05705 0 C 43.05705 23.76749 23.767489999999995 43.05705 0 43.05705 C -23.76749 43.05705 -43.05705 23.767489999999995 -43.05705 0 C -43.05705 -23.76749 -23.767489999999995 -43.05705 0 -43.05705 z" stroke-linecap="round" />
	</g>
	<g transform="matrix(0.18 0 0 0.18 246.87 525.44)" id="su4juh2S9-yWewl8HtNv2">
		<path style="stroke: rgb(178,193,88); stroke-width: 0; stroke-dasharray: none; stroke-linecap: butt; stroke-dashoffset: 0; stroke-linejoin: miter; stroke-miterlimit: 4; fill: rgb(165,6,174); fill-rule: nonzero; opacity: 1;" vector-effect="non-scaling-stroke" transform=" translate(0, 0)" d="M 0 -43.05705 C 23.76749 -43.05705 43.05705 -23.767489999999995 43.05705 0 C 43.05705 23.76749 23.767489999999995 43.05705 0 43.05705 C -23.76749 43.05705 -43.05705 23.767489999999995 -43.05705 0 C -43.05705 -23.76749 -23.767489999999995 -43.05705 0 -43.05705 z" stroke-linecap="round" />
	</g>
	<g transform="matrix(0.18 0 0 0.18 388.87 456.44)" id="h_RRv0iiJGkUzJW_tVVJ0">
		<path style="stroke: rgb(178,193,88); stroke-width: 0; stroke-dasharray: none; stroke-linecap: butt; stroke-dashoffset: 0; stroke-linejoin: miter; stroke-miterlimit: 4; fill: rgb(165,6,174); fill-rule: nonzero; opacity: 1;" vector-effect="non-scaling-stroke" transform=" translate(0, 0)" d="M 0 -43.05705 C 23.76749 -43.05705 43.05705 -23.767489999999995 43.05705 0 C 43.05705 23.76749 23.767489999999995 43.05705 0 43.05705 C -23.76749 43.05705 -43.05705 23.767489999999995 -43.05705 0 C -43.05705 -23.76749 -23.767489999999995 -43.05705 0 -43.05705 z" stroke-linecap="round" />
	</g>
	<g transform="matrix(0.18 0 0 0.18 388.87 323.44)" id="QW-19MYUaEydQVy4T5G2D">
		<path style="stroke: rgb(178,193,88); stroke-width: 0; stroke-dasharray: none; stroke-linecap: butt; stroke-dashoffset: 0; stroke-linejoin: miter; stroke-miterlimit: 4; fill: rgb(165,6,174); fill-rule: nonzero; opacity: 1;" vector-effect="non-scaling-stroke" transform=" translate(0, 0)" d="M 0 -43.05705 C 23.76749 -43.05705 43.05705 -23.767489999999995 43.05705 0 C 43.05705 23.76749 23.767489999999995 43.05705 0 43.05705 C -23.76749 43.05705 -43.05705 23.767489999999995 -43.05705 0 C -43.05705 -23.76749 -23.767489999999995 -43.05705 0 -43.05705 z" stroke-linecap="round" />
	</g>
	<g transform="matrix(0.18 0 0 0.18 482.81 228.02)" id="SkA8-vQtY9VtP1nULHkT3">
		<path style="stroke: rgb(178,193,88); stroke-width: 0; stroke-dasharray: none; stroke-linecap: butt; stroke-dashoffset: 0; stroke-linejoin: miter; stroke-miterlimit: 4; fill: rgb(165,6,174); fill-rule: nonzero; opacity: 1;" vector-effect="non-scaling-stroke" transform=" translate(0, 0)" d="M 0 -43.05705 C 23.76749 -43.05705 43.05705 -23.767489999999995 43.05705 0 C 43.05705 23.76749 23.767489999999995 43.05705 0 43.05705 C -23.76749 43.05705 -43.05705 23.767489999999995 -43.05705 0 C -43.05705 -23.76749 -23.767489999999995 -43.05705 0 -43.05705 z" stroke-linecap="round" />
	</g>
	<g transform="matrix(0.18 0 0 0.18 481.87 105.44)" id="aDspwsAVhp0AGq_FCI3wb">
		<path style="stroke: rgb(178,193,88); stroke-width: 0; stroke-dasharray: none; stroke-linecap: butt; stroke-dashoffset: 0; stroke-linejoin: miter; stroke-miterlimit: 4; fill: rgb(165,6,174); fill-rule: nonzero; opacity: 1;" vector-effect="non-scaling-stroke" transform=" translate(0, 0)" d="M 0 -43.05705 C 23.76749 -43.05705 43.05705 -23.767489999999995 43.05705 0 C 43.05705 23.76749 23.767489999999995 43.05705 0 43.05705 C -23.76749 43.05705 -43.05705 23.767489999999995 -43.05705 0 C -43.05705 -23.76749 -23.767489999999995 -43.05705 0 -43.05705 z" stroke-linecap="round" />
	</g>
</svg>
